<?xml version="1.0" encoding="UTF-8" standalone="no"?>
<!DOCTYPE svg PUBLIC "-//W3C//DTD SVG 1.1//EN" "http://www.w3.org/Graphics/SVG/1.1/DTD/svg11.dtd">
<svg width="100%" height="100%" viewBox="0 0 750 105" version="1.1" xmlns="http://www.w3.org/2000/svg" xmlns:xlink="http://www.w3.org/1999/xlink" xml:space="preserve" xmlns:serif="http://www.serif.com/" style="fill-rule:evenodd;clip-rule:evenodd;stroke-linejoin:round;stroke-miterlimit:2;">
    <g transform="matrix(1,0,0,1,-121.324,-447.07)">
        <g transform="matrix(3.64403,0,0,3.64989,-420.094,-951.122)">
            <path d="M152.096,397.254L152.096,406.118L148.576,406.118L148.576,383.078L152.096,383.078L152.096,392.494C152.517,391.989 153.018,391.571 153.6,391.238C154.518,390.705 155.542,390.438 156.672,390.438C157.824,390.438 158.848,390.694 159.744,391.206C160.64,391.718 161.344,392.433 161.856,393.35C162.368,394.246 162.624,395.291 162.624,396.486L162.624,406.118L159.104,406.118L159.104,397.254C159.104,396.23 158.774,395.387 158.112,394.726C157.472,394.065 156.64,393.734 155.616,393.734C154.934,393.734 154.326,393.883 153.792,394.182C153.259,394.481 152.843,394.897 152.544,395.43C152.246,395.963 152.096,396.571 152.096,397.254ZM172.512,406.438C171.211,406.438 170.048,406.15 169.024,405.574C168.022,404.998 167.232,404.209 166.656,403.206C166.102,402.182 165.824,401.009 165.824,399.686L165.824,390.758L169.344,390.758L169.344,399.526C169.344,400.273 169.462,400.913 169.696,401.446C169.952,401.958 170.315,402.353 170.784,402.63C171.275,402.907 171.851,403.046 172.512,403.046C173.536,403.046 174.315,402.747 174.848,402.15C175.403,401.531 175.68,400.657 175.68,399.526L175.68,390.758L179.2,390.758L179.2,399.686C179.2,401.03 178.912,402.214 178.336,403.238C177.782,404.241 177.003,405.03 176,405.606C174.998,406.161 173.835,406.438 172.512,406.438ZM186.272,396.966L186.272,406.118L182.752,406.118L182.752,390.758L186.272,390.758L186.272,392.328C186.687,391.863 187.178,391.478 187.744,391.174C188.619,390.683 189.6,390.438 190.688,390.438C191.776,390.438 192.758,390.673 193.632,391.142C194.463,391.588 195.129,392.206 195.633,392.997C196.191,392.221 196.89,391.614 197.728,391.174C198.646,390.683 199.648,390.438 200.736,390.438C201.846,390.438 202.848,390.673 203.744,391.142C204.64,391.611 205.355,392.273 205.888,393.126C206.422,393.979 206.688,395.003 206.688,396.198L206.688,406.118L203.168,406.118L203.168,396.966C203.168,395.942 202.848,395.153 202.208,394.598C201.568,394.022 200.779,393.734 199.84,393.734C199.222,393.734 198.656,393.862 198.144,394.118C197.632,394.374 197.227,394.747 196.928,395.238C196.63,395.707 196.48,396.283 196.48,396.966L196.48,406.118L192.96,406.118L192.96,396.966C192.96,395.942 192.64,395.153 192,394.598C191.36,394.022 190.571,393.734 189.632,393.734C188.992,393.734 188.416,393.862 187.904,394.118C187.414,394.374 187.019,394.747 186.72,395.238C186.422,395.707 186.272,396.283 186.272,396.966ZM221.44,404.432C221.008,404.937 220.486,405.36 219.872,405.702C218.955,406.193 217.91,406.438 216.736,406.438C215.35,406.438 214.091,406.086 212.96,405.382C211.851,404.678 210.966,403.729 210.304,402.534C209.664,401.318 209.344,399.963 209.344,398.47C209.344,396.955 209.664,395.601 210.304,394.406C210.966,393.19 211.851,392.23 212.96,391.526C214.091,390.801 215.35,390.438 216.736,390.438C217.91,390.438 218.944,390.694 219.84,391.206C220.462,391.539 220.995,391.959 221.44,392.468L221.44,390.758L224.96,390.758L224.96,406.118L221.44,406.118L221.44,404.432ZM217.312,403.11C218.614,403.11 219.659,402.673 220.448,401.798C221.259,400.923 221.664,399.803 221.664,398.438C221.664,397.521 221.483,396.71 221.12,396.006C220.758,395.302 220.246,394.758 219.584,394.374C218.944,393.969 218.187,393.766 217.312,393.766C216.459,393.766 215.702,393.969 215.04,394.374C214.4,394.758 213.888,395.302 213.504,396.006C213.142,396.71 212.96,397.521 212.96,398.438C212.96,399.355 213.142,400.166 213.504,400.87C213.888,401.574 214.4,402.129 215.04,402.534C215.702,402.918 216.459,403.11 217.312,403.11ZM232.384,397.254L232.384,406.118L228.864,406.118L228.864,390.758L232.384,390.758L232.384,392.494C232.805,391.989 233.306,391.571 233.888,391.238C234.806,390.705 235.83,390.438 236.96,390.438C238.112,390.438 239.136,390.737 240.032,391.334C240.928,391.91 241.632,392.667 242.144,393.606C242.656,394.523 242.912,395.483 242.912,396.486L242.912,406.118L239.392,406.118L239.392,397.254C239.392,396.23 239.062,395.387 238.4,394.726C237.76,394.065 236.928,393.734 235.904,393.734C235.222,393.734 234.614,393.883 234.08,394.182C233.547,394.481 233.131,394.897 232.832,395.43C232.534,395.963 232.384,396.571 232.384,397.254ZM251.52,406.438C250.667,406.438 249.846,406.331 249.056,406.118C248.267,405.883 247.542,405.563 246.88,405.158C246.219,404.731 245.643,404.219 245.152,403.622L247.392,401.382C247.926,402.001 248.534,402.47 249.216,402.79C249.92,403.089 250.71,403.238 251.584,403.238C252.374,403.238 252.971,403.121 253.376,402.886C253.782,402.651 253.984,402.31 253.984,401.862C253.984,401.393 253.792,401.03 253.408,400.774C253.024,400.518 252.523,400.305 251.904,400.134C251.307,399.942 250.667,399.75 249.984,399.558C249.323,399.366 248.683,399.11 248.064,398.79C247.467,398.449 246.976,397.99 246.592,397.414C246.208,396.838 246.016,396.091 246.016,395.174C246.016,394.193 246.24,393.35 246.688,392.646C247.158,391.942 247.808,391.398 248.64,391.014C249.494,390.63 250.507,390.438 251.68,390.438C252.918,390.438 254.006,390.662 254.944,391.11C255.904,391.537 256.704,392.187 257.344,393.062L255.104,395.302C254.656,394.747 254.144,394.331 253.568,394.054C252.992,393.777 252.331,393.638 251.584,393.638C250.88,393.638 250.336,393.745 249.952,393.958C249.568,394.171 249.376,394.481 249.376,394.886C249.376,395.313 249.568,395.643 249.952,395.878C250.336,396.113 250.827,396.315 251.424,396.486C252.043,396.657 252.683,396.849 253.344,397.062C254.027,397.254 254.667,397.531 255.264,397.894C255.883,398.235 256.384,398.705 256.768,399.302C257.152,399.878 257.344,400.635 257.344,401.574C257.344,403.067 256.822,404.251 255.776,405.126C254.731,406.001 253.312,406.438 251.52,406.438ZM282.2,402.487L282.2,411.846L280.568,411.846L280.568,390.662L282.2,390.662L282.2,393.671C282.358,393.377 282.54,393.099 282.744,392.838C283.384,392.027 284.163,391.409 285.08,390.982C286.019,390.555 287.032,390.342 288.12,390.342C289.528,390.342 290.787,390.683 291.896,391.366C293.006,392.049 293.88,392.977 294.52,394.15C295.16,395.323 295.48,396.646 295.48,398.118C295.48,399.59 295.16,400.913 294.52,402.086C293.88,403.238 293.006,404.155 291.896,404.838C290.787,405.521 289.528,405.862 288.12,405.862C287.011,405.862 285.987,405.638 285.048,405.19C284.131,404.742 283.363,404.123 282.744,403.334C282.54,403.066 282.358,402.784 282.2,402.487ZM287.832,404.326C289.006,404.326 290.04,404.059 290.936,403.526C291.832,402.993 292.536,402.257 293.048,401.318C293.56,400.379 293.816,399.302 293.816,398.086C293.816,396.87 293.56,395.793 293.048,394.854C292.536,393.915 291.832,393.19 290.936,392.678C290.062,392.145 289.059,391.878 287.928,391.878C286.776,391.878 285.763,392.145 284.888,392.678C284.035,393.19 283.363,393.915 282.872,394.854C282.382,395.793 282.136,396.881 282.136,398.118C282.136,399.334 282.371,400.411 282.84,401.35C283.331,402.267 284.003,402.993 284.856,403.526C285.731,404.059 286.723,404.326 287.832,404.326ZM299.384,405.542L299.384,390.662L300.984,390.662L300.984,405.542L299.384,405.542ZM300.184,387.206C299.822,387.206 299.512,387.078 299.256,386.822C299.022,386.545 298.904,386.225 298.904,385.862C298.904,385.499 299.022,385.201 299.256,384.966C299.512,384.71 299.822,384.582 300.184,384.582C300.547,384.582 300.856,384.71 301.112,384.966C301.368,385.201 301.496,385.499 301.496,385.862C301.496,386.225 301.368,386.545 301.112,386.822C300.856,387.078 300.547,387.206 300.184,387.206ZM311.348,398.948L306.264,405.542L304.28,405.542L310.358,397.854L304.568,390.662L306.584,390.662L311.418,396.781L316.184,390.662L318.136,390.662L312.394,397.795L318.392,405.542L316.376,405.542L311.348,398.948ZM321.748,398.694C321.826,399.685 322.073,400.57 322.488,401.35C323.022,402.289 323.758,403.025 324.696,403.558C325.635,404.07 326.734,404.326 327.992,404.326C328.952,404.326 329.838,404.155 330.648,403.814C331.48,403.451 332.174,402.918 332.728,402.214L333.816,403.27C333.134,404.081 332.27,404.721 331.224,405.19C330.2,405.638 329.091,405.862 327.896,405.862C326.424,405.862 325.091,405.521 323.896,404.838C322.723,404.155 321.795,403.227 321.112,402.054C320.43,400.881 320.088,399.558 320.088,398.086C320.088,396.614 320.419,395.302 321.08,394.15C321.742,392.977 322.648,392.049 323.8,391.366C324.974,390.683 326.275,390.342 327.704,390.342C329.07,390.342 330.264,390.651 331.288,391.27C332.334,391.867 333.144,392.699 333.72,393.766C334.318,394.833 334.616,396.059 334.616,397.446C334.616,397.574 334.606,397.745 334.584,397.958C334.563,398.15 334.531,398.395 334.488,398.694L321.748,398.694ZM321.749,397.286L333.021,397.286C333.006,396.298 332.812,395.424 332.44,394.662C332.014,393.766 331.395,393.073 330.584,392.582C329.774,392.091 328.803,391.846 327.672,391.846C326.499,391.846 325.464,392.113 324.568,392.646C323.672,393.158 322.968,393.873 322.456,394.79C322.063,395.526 321.827,396.358 321.749,397.286ZM338.328,405.542L338.328,383.078L339.96,383.078L339.96,405.542L338.328,405.542ZM349.208,405.862C348.398,405.862 347.63,405.755 346.904,405.542C346.2,405.307 345.55,404.987 344.952,404.582C344.376,404.177 343.864,403.707 343.416,403.174L344.504,402.086C345.102,402.875 345.795,403.462 346.584,403.846C347.395,404.209 348.28,404.39 349.24,404.39C350.35,404.39 351.224,404.166 351.864,403.718C352.504,403.27 352.824,402.641 352.824,401.83C352.824,401.105 352.622,400.539 352.216,400.134C351.811,399.707 351.278,399.377 350.616,399.142C349.976,398.907 349.294,398.683 348.568,398.47C347.864,398.257 347.182,398.001 346.52,397.702C345.88,397.403 345.358,396.987 344.952,396.454C344.547,395.921 344.344,395.206 344.344,394.31C344.344,393.521 344.547,392.827 344.952,392.23C345.358,391.633 345.923,391.174 346.648,390.854C347.395,390.513 348.27,390.342 349.272,390.342C350.382,390.342 351.374,390.534 352.248,390.918C353.144,391.302 353.859,391.867 354.392,392.614L353.336,393.702C352.91,393.105 352.334,392.646 351.608,392.326C350.883,391.985 350.072,391.814 349.176,391.814C348.11,391.814 347.299,392.038 346.744,392.486C346.19,392.934 345.912,393.51 345.912,394.214C345.912,394.875 346.115,395.398 346.52,395.782C346.926,396.166 347.448,396.465 348.088,396.678C348.75,396.891 349.432,397.105 350.136,397.318C350.862,397.51 351.544,397.766 352.184,398.086C352.846,398.406 353.379,398.843 353.784,399.398C354.19,399.953 354.392,400.71 354.392,401.67C354.392,402.95 353.923,403.974 352.984,404.742C352.046,405.489 350.787,405.862 349.208,405.862ZM262.948,392.352L260.344,392.352L260.344,390.504L267.7,390.504L267.7,392.352L265.096,392.352L265.096,399.012L262.948,399.012L262.948,392.352ZM272.044,399.168C271.388,399.168 270.784,399.056 270.232,398.832C269.68,398.608 269.196,398.296 268.78,397.896C268.372,397.496 268.052,397.028 267.82,396.492C267.588,395.948 267.472,395.364 267.472,394.74C267.472,394.116 267.584,393.54 267.808,393.012C268.04,392.476 268.36,392.008 268.768,391.608C269.176,391.208 269.656,390.9 270.208,390.684C270.76,390.46 271.364,390.348 272.02,390.348C272.676,390.348 273.28,390.46 273.832,390.684C274.384,390.9 274.864,391.208 275.272,391.608C275.68,392.008 275.996,392.476 276.22,393.012C276.452,393.548 276.568,394.128 276.568,394.752C276.568,395.376 276.452,395.956 276.22,396.492C275.996,397.028 275.68,397.5 275.272,397.908C274.864,398.308 274.384,398.62 273.832,398.844C273.288,399.06 272.692,399.168 272.044,399.168ZM272.02,397.248C272.5,397.248 272.916,397.144 273.268,396.936C273.62,396.728 273.892,396.436 274.084,396.06C274.276,395.684 274.372,395.244 274.372,394.74C274.372,394.372 274.316,394.036 274.204,393.732C274.1,393.428 273.944,393.168 273.736,392.952C273.528,392.728 273.28,392.556 272.992,392.436C272.704,392.316 272.38,392.256 272.02,392.256C271.54,392.256 271.124,392.36 270.772,392.568C270.42,392.768 270.148,393.056 269.956,393.432C269.764,393.808 269.668,394.244 269.668,394.74C269.668,395.124 269.72,395.472 269.824,395.784C269.936,396.088 270.096,396.352 270.304,396.576C270.512,396.792 270.76,396.96 271.048,397.08C271.336,397.192 271.66,397.248 272.02,397.248Z" style="fill:white;"/>
        </g>
    </g>
</svg>
